<svg xmlns="http://www.w3.org/2000/svg" width="46.164" height="44" viewBox="0 0 46.164 44"><defs><style>.a{fill:#1c3ffd;}.b{fill:#08ce73;}</style></defs><g transform="translate(-904 -816)"><path class="a" d="M51.328,11.656A4.328,4.328,0,1,0,47,7.328a4.328,4.328,0,0,0,4.328,4.328Zm0-7.213a2.885,2.885,0,1,1-2.885,2.885,2.885,2.885,0,0,1,2.885-2.885Z" transform="translate(873.951 813)"/><path class="a" d="M45.443,40.038a.721.721,0,0,0-.721.721V42.2H43.279V29.94A1.443,1.443,0,0,0,41.836,28.5H33.9a1.443,1.443,0,0,0-1.443,1.443V42.2H31.016V40.038a1.428,1.428,0,0,0-.2-.721,1.428,1.428,0,0,0,.2-.721V37.514a1.443,1.443,0,0,0-.071-.446L26.6,23.723a1.436,1.436,0,0,0-.365-.586,5.8,5.8,0,0,1-.95,1.207l4.286,13.17V38.6H19.115v9.738a1.082,1.082,0,0,1-2.164,0V37.153l6.372-2.164-2.835-7.858-6.247,5.3a.666.666,0,0,1-.927-.063l-.011-.013a.675.675,0,0,1,.021-.923l5.721-5.82.15-.035a5.759,5.759,0,0,1-1.38-.771l-5.52,5.615a2.122,2.122,0,0,0,2.88,3.111l4.662-3.956,1.631,4.52-4.98,1.691a1.443,1.443,0,0,0-.979,1.366v11.18a2.525,2.525,0,1,0,5.049,0V41.876c.566.682,1.043,1.235,1.071,1.268a1.432,1.432,0,0,0,.372.3V44.9a1.424,1.424,0,0,0,.178.086,3.6,3.6,0,0,1,1.986,3.41,2.236,2.236,0,0,1-1.9,2.466H14.8l-2.849-3.935L13.2,35.53a2.873,2.873,0,0,0,.416-.064,3.552,3.552,0,0,1-1.794-.607L10.459,47.32,14.066,52.3h8.3a3.722,3.722,0,0,0,3.246-3.909,5.077,5.077,0,0,0-2.885-4.747H35.164l.18,1.53a8.955,8.955,0,0,1,5.049,8.208h-11.9v1.443H11.462A8.044,8.044,0,0,0,5.488,52.3a10.829,10.829,0,0,0-4.046.839s.967-4.034,4.365-4.034a5.408,5.408,0,0,1,1.776.326c.207.072.4.149.585.227,0,0-3.7-8.247,1.93-15.753H7.574a.724.724,0,0,1-.721-.721V30.3a.721.721,0,0,1,1.067-.628l2.453,1.326a3.529,3.529,0,0,1,.641-1.293L8.605,28.4a2.175,2.175,0,0,0-1.031-.262h0a2.163,2.163,0,0,0-1.5.6A2.133,2.133,0,0,0,5.41,30.3v2.891a2.167,2.167,0,0,0,2.066,2.162A17.612,17.612,0,0,0,6.028,47.668q-.111,0-.221,0C2.227,47.664.5,50.895.04,52.8a1.443,1.443,0,0,0,1.4,1.779c.038,0,.077-.008.115-.011a4.255,4.255,0,0,0-.115.975,4.328,4.328,0,0,0,8.656,0c0-.019,0-.038,0-.057.16.148.248.247.251.252a1.443,1.443,0,0,0,1.114.526h17.03a1.443,1.443,0,0,0,1.443-1.443H31.44a4.206,4.206,0,0,0-.063.721,4.328,4.328,0,0,0,8.656,0,4.206,4.206,0,0,0-.063-.721h.424a1.443,1.443,0,0,0,1.443-1.443c0-.179,0-.355-.012-.528a2.875,2.875,0,0,0,1.845-3.589l-.546-1.758a2.872,2.872,0,0,0-2.755-2.029H38.59a1.385,1.385,0,0,0-.2.018,10.794,10.794,0,0,0-1.7-1.245l-.071-.607h8.826a.721.721,0,0,0,.721-.721V40.76a.721.721,0,0,0-.721-.721ZM29.574,42.2H22.721s-.981-1.138-1.8-2.164h8.656Zm-23.8,16.23a2.877,2.877,0,0,1-2.451-4.4,8.625,8.625,0,0,1,2.169-.291,6.926,6.926,0,0,1,2.915.63,2.878,2.878,0,0,1-2.632,4.058Zm29.934,0a2.885,2.885,0,0,1-2.885-2.885,2.852,2.852,0,0,1,.095-.721H38.5a2.852,2.852,0,0,1,.095.721A2.885,2.885,0,0,1,35.7,58.432Zm4.663-11.511a1.443,1.443,0,0,1,1.378,1.015l.546,1.758a1.438,1.438,0,0,1-.63,1.658,10.014,10.014,0,0,0-1.944-4.431ZM36.787,29.94h2.164V32.1H36.787ZM41.836,42.2H33.9V29.94h1.443V32.1a1.443,1.443,0,0,0,1.443,1.443h2.164A1.443,1.443,0,0,0,40.393,32.1V29.94h1.443Z" transform="translate(904 800.125)"/><path class="b" d="M26.234,12.38h1.129v1.061a.5.5,0,0,0,1,0V12.38h1.129a.47.47,0,1,0,0-.939H28.362V10.38a.5.5,0,0,0-1,0v1.061H26.234a.47.47,0,1,0,0,.939Z" transform="translate(914.015 826.286)"/></g></svg>