<svg xmlns="http://www.w3.org/2000/svg" width="40.175" height="44.35" viewBox="0 0 40.175 44.35"><defs><style>.a,.d{fill:#1c3ffd;}.a{stroke:#fff;stroke-width:0.35px;}.b{fill:#08ce73;}.c{fill:#afb5ba;}</style></defs><g transform="translate(-393.488 -977.825)"><path class="a" d="M45.688,43.583V14.319c0-.02-.011-.037-.012-.056a1.133,1.133,0,0,0-.085-.328.9.9,0,0,0-.188-.263h0l-7.863-7.4h0l0,0a.971.971,0,0,0-.276-.175c-.03-.013-.061-.021-.092-.031a1.016,1.016,0,0,0-.258-.049c-.021,0-.038-.011-.059-.011H14.461a.947.947,0,0,0-.975.917V43.583a.947.947,0,0,0,.975.917h13.9l-1.175,2.665a.873.873,0,0,0,.143.927,1,1,0,0,0,.935.325l2.078-.36,1.269,1.579a1,1,0,0,0,.778.364,1.074,1.074,0,0,0,.136-.009.965.965,0,0,0,.774-.578l1.588-3.869,1.6,3.87a.965.965,0,0,0,.775.576.978.978,0,0,0,.135.009,1,1,0,0,0,.778-.364l1.268-1.579,2.078.36a1,1,0,0,0,.935-.325.873.873,0,0,0,.143-.927L41.416,44.5h3.3A.947.947,0,0,0,45.688,43.583ZM37.824,9.131l4.537,4.27H37.824Zm-2.94,34.055A4.2,4.2,0,1,1,39.338,39,4.332,4.332,0,0,1,34.884,43.186Zm-2.778,4.03-.575-.716a1,1,0,0,0-.955-.349l-.906.157,1.167-2.648a6.54,6.54,0,0,0,2.269,1.118Zm7.089-1.064a1,1,0,0,0-.955.349l-.577.717-1.006-2.439a6.54,6.54,0,0,0,2.277-1.122L40.1,46.309Zm1.414-3.485-.248-.564a5.711,5.711,0,0,0,.927-3.1,6.228,6.228,0,0,0-6.4-6.021A6.228,6.228,0,0,0,28.48,39a5.712,5.712,0,0,0,.931,3.11l-.246.558H15.436V7.833H35.874v6.485a.947.947,0,0,0,.975.917h6.889V42.667H40.609Z" transform="translate(387.8 972)"/><path class="b" d="M26.71,14.733h2.2v2.073a.977.977,0,0,0,1.95,0V14.733H33.07a.918.918,0,1,0,0-1.833H30.865V10.827a.977.977,0,0,0-1.95,0V12.9h-2.2a.918.918,0,1,0,0,1.833Z" transform="translate(387.493 971.674)"/><path class="c" d="M40.558,19.544H18.827a.918.918,0,1,0,0,1.833H40.558a.918.918,0,1,0,0-1.833Z" transform="translate(387.691 970.871)"/><path class="c" d="M40.558,24.548H18.827a.918.918,0,1,0,0,1.833H40.558a.918.918,0,1,0,0-1.833Z" transform="translate(387.691 970.454)"/><path class="c" d="M40.558,29.552H18.827a.918.918,0,1,0,0,1.833H40.558a.918.918,0,1,0,0-1.833Z" transform="translate(387.691 970.037)"/><path class="c" d="M27.9,34.556H18.827a.918.918,0,1,0,0,1.833H27.9a.918.918,0,1,0,0-1.833Z" transform="translate(387.691 969.62)"/><path class="d" d="M30.769,35.82H30.6a2.014,2.014,0,0,0,.072-.525,2.249,2.249,0,0,0-2.315-2.174,2.417,2.417,0,0,0-.8.141,5.222,5.222,0,0,0-5.724-2.185A4.83,4.83,0,0,0,18.1,35.7a1.6,1.6,0,0,0,.013.251h-.029a2.266,2.266,0,1,0,0,4.524H30.769a2.334,2.334,0,1,0,0-4.659Z" transform="translate(377.808 975.844)"/></g></svg>