<svg xmlns="http://www.w3.org/2000/svg" width="37.715" height="44" viewBox="0 0 37.715 44"><defs><style>.a{fill:#1c3ffd;}.b{fill:#08ce73;}</style></defs><g transform="translate(-4 -2.025)"><path class="a" d="M-180.143-2046.975a.865.865,0,0,1-.786-.314l-2.728-.944c-4.722-2.678-8.546-4.987-11.208-8.276a16.967,16.967,0,0,1-3.064-5.812,27.99,27.99,0,0,1-1.071-8.245v-12.583a1.6,1.6,0,0,1,.943-1.416l17.285-6.291a1.252,1.252,0,0,1,.55-.118,1.252,1.252,0,0,1,.55.118l17.285,6.291a1.513,1.513,0,0,1,1.1,1.416v12.74c0,12.794-6.76,16.74-16.116,22.2l-.227.132-1.729.944A1.421,1.421,0,0,1-180.143-2046.975Zm-.077-42a1.117,1.117,0,0,0-.491.105l-15.446,5.621a1.431,1.431,0,0,0-.842,1.265v11.243c0,11.592,5.21,15.136,13.71,19.957l2.438.844a.773.773,0,0,0,.7.281,1.266,1.266,0,0,0,.7-.14l1.545-.843.2-.119c8.36-4.881,14.4-8.407,14.4-19.839v-11.383a1.351,1.351,0,0,0-.984-1.265l-15.446-5.621A1.117,1.117,0,0,0-180.221-2088.975Z" transform="translate(203 2093)"/><path class="b" d="M12.571,20.637h4.714v4.719a1.571,1.571,0,1,0,3.143,0V20.637h4.714a1.573,1.573,0,0,0,0-3.146H20.429V12.773a1.571,1.571,0,1,0-3.143,0v4.718H12.571a1.573,1.573,0,0,0,0,3.146Z" transform="translate(4 5.256)"/></g></svg>