<svg xmlns="http://www.w3.org/2000/svg" width="34.974" height="44" viewBox="0 0 34.974 44"><defs><style>.a{fill:#1c3ffd;}.b{fill:#08ce73;}</style></defs><g transform="translate(-881 -1183)"><path class="a" d="M36.425,38.754c.319,0,.689.02,1.089.04a8.512,8.512,0,0,0,1.219-.005l3.881,8.931H34.246l-1.87-3.442a1.068,1.068,0,0,0-1.872,0l-1.872,3.442H20.264l3.884-8.931a8.431,8.431,0,0,0,1.247.005,7.53,7.53,0,0,1,1.872.029,7.682,7.682,0,0,1,1.638.906,4.61,4.61,0,0,0,2.548.95A4.616,4.616,0,0,0,34,39.73a7.692,7.692,0,0,1,1.636-.906v-.005A3.233,3.233,0,0,1,36.425,38.754ZM32.849,8.573a7.66,7.66,0,0,0,2.243,1.179,7.732,7.732,0,0,0,2.531.1,3.117,3.117,0,0,1,1.512.166,3.112,3.112,0,0,1,.9,1.219,7.616,7.616,0,0,0,1.348,2.14,7.724,7.724,0,0,0,2.144,1.342,3.121,3.121,0,0,1,1.23.9,3.068,3.068,0,0,1,.165,1.5,7.549,7.549,0,0,0,.1,2.523,7.589,7.589,0,0,0,1.186,2.231,3.1,3.1,0,0,1,.608,1.392,3.108,3.108,0,0,1-.608,1.389,7.54,7.54,0,0,0-1.186,2.227,7.626,7.626,0,0,0-.1,2.523,3.08,3.08,0,0,1-.165,1.506,3.134,3.134,0,0,1-1.23.9,7.76,7.76,0,0,0-2.144,1.345,7.624,7.624,0,0,0-1.348,2.138,3.114,3.114,0,0,1-.881,1.2l-.355.132a4.713,4.713,0,0,1-1.18.058,7.62,7.62,0,0,0-2.531.094,7.693,7.693,0,0,0-2.243,1.178,3.126,3.126,0,0,1-1.4.608,3.149,3.149,0,0,1-1.4-.608,7.621,7.621,0,0,0-2.239-1.178,7.637,7.637,0,0,0-2.531-.094,4.4,4.4,0,0,1-1.242-.07l-.282-.1a3.144,3.144,0,0,1-.9-1.213,7.616,7.616,0,0,0-1.348-2.138,7.664,7.664,0,0,0-2.144-1.345,3.114,3.114,0,0,1-1.228-.9,3.115,3.115,0,0,1-.167-1.506,7.56,7.56,0,0,0-.094-2.523A7.593,7.593,0,0,0,16.7,24.655a3.066,3.066,0,0,1-.608-1.389,3.062,3.062,0,0,1,.608-1.392,7.7,7.7,0,0,0,1.186-2.231,7.535,7.535,0,0,0,.094-2.52,3.1,3.1,0,0,1,.167-1.5,3.081,3.081,0,0,1,1.228-.9,7.636,7.636,0,0,0,2.144-1.342,7.616,7.616,0,0,0,1.348-2.14,3.125,3.125,0,0,1,.9-1.219,3.117,3.117,0,0,1,1.515-.166,7.734,7.734,0,0,0,2.531-.1,7.6,7.6,0,0,0,2.239-1.179,3.15,3.15,0,0,1,1.4-.608A3.119,3.119,0,0,1,32.849,8.573Zm-1.4-2.73a4.6,4.6,0,0,0-2.548.95,7.533,7.533,0,0,1-1.638.912,7.7,7.7,0,0,1-1.872.024,4.646,4.646,0,0,0-2.686.447A4.6,4.6,0,0,0,20.98,10.27a7.717,7.717,0,0,1-.962,1.605,7.754,7.754,0,0,1-1.609.953,4.6,4.6,0,0,0-2.1,1.728,4.566,4.566,0,0,0-.453,2.672,7.566,7.566,0,0,1-.026,1.865,7.641,7.641,0,0,1-.916,1.628,4.605,4.605,0,0,0-.948,2.543,4.587,4.587,0,0,0,.948,2.538,7.53,7.53,0,0,1,.916,1.632,7.551,7.551,0,0,1,.026,1.865,4.56,4.56,0,0,0,.453,2.669,4.582,4.582,0,0,0,2.1,1.728,7.56,7.56,0,0,1,1.609.956,7.544,7.544,0,0,1,.962,1.6,5.463,5.463,0,0,0,1.2,1.71L17.666,48.358a1.063,1.063,0,0,0,.975,1.485H29.262a1.062,1.062,0,0,0,.937-.556l1.238-2.277,1.242,2.277a1.066,1.066,0,0,0,.937.556H44.236a1.061,1.061,0,0,0,.977-1.485L40.7,37.984a5.424,5.424,0,0,0,1.23-1.731,7.6,7.6,0,0,1,.96-1.6A7.624,7.624,0,0,1,44.5,33.7a4.574,4.574,0,0,0,2.1-1.728,4.564,4.564,0,0,0,.456-2.669,7.447,7.447,0,0,1,.023-1.865,7.68,7.68,0,0,1,.916-1.632,4.566,4.566,0,0,0,.948-2.538,4.578,4.578,0,0,0-.948-2.543,7.744,7.744,0,0,1-.916-1.628,7.429,7.429,0,0,1-.023-1.865,4.566,4.566,0,0,0-.456-2.672,4.585,4.585,0,0,0-2.1-1.728,7.808,7.808,0,0,1-1.611-.953,7.768,7.768,0,0,1-.96-1.605A4.588,4.588,0,0,0,40.2,8.176a4.642,4.642,0,0,0-2.686-.447,7.7,7.7,0,0,1-1.872-.024A7.554,7.554,0,0,1,34,6.794,4.614,4.614,0,0,0,31.454,5.843Z" transform="translate(867.033 1177.157)"/><path class="b" d="M45.361,25.239a1.046,1.046,0,0,0-.732.32L33.622,36.5a1.065,1.065,0,1,0,1.5,1.511L46.129,27.069A1.065,1.065,0,0,0,45.361,25.239Z" transform="translate(858.595 1168.626)"/><path class="b" d="M35.742,25.467a1.54,1.54,0,0,1,.009,2.209,1.574,1.574,0,1,1-.009-2.209Zm1.511-1.5a3.738,3.738,0,0,0-5.244-.009,3.69,3.69,0,0,0,.006,5.221,3.741,3.741,0,0,0,5.25.005,3.691,3.691,0,0,0-.009-5.218h0Z" transform="translate(859.63 1169.672)"/><path class="b" d="M50.677,40.323a1.565,1.565,0,1,1-2.227,0A1.564,1.564,0,0,1,50.677,40.323Zm1.513-1.5a3.741,3.741,0,0,0-5.25-.005,3.689,3.689,0,0,0,.006,5.218,3.746,3.746,0,0,0,5.251.009A3.7,3.7,0,0,0,52.19,38.822Z" transform="translate(853.111 1163.146)"/></g></svg>