<svg width="70" height="45" viewBox="0 0 70 45" fill="none" xmlns="http://www.w3.org/2000/svg">
<g clip-path="url(#clip0_453_4669)">
<path d="M32.6957 31.7797L65.4889 31.7699C67.2301 28.8849 68.232 25.5035 68.231 21.8879C68.2278 11.3163 59.6553 2.74895 49.0837 2.7521C38.5121 2.75525 29.9447 11.3277 29.9479 21.8993C29.9489 25.5149 30.9528 28.8957 32.6957 31.7797Z" fill="#5E3369"/>
<path d="M63.7985 23.1348C63.5657 19.6797 62.4485 16.3928 61.3094 13.0643L56.304 7.97934L54.4945 2.4734C50.7262 0.524259 47.2276 0.606792 43.6467 2.41515L42.6146 5.41008L60.9685 27.2027L63.7985 23.1348Z" fill="#21B784"/>
<path d="M61.3279 13.1129C60.8522 11.7228 60.372 10.3257 59.95 8.90615C58.9517 5.54782 56.675 3.59105 54.4556 2.45274C53.688 3.01706 52.6846 4.0925 53.4243 5.53635C54.5448 7.72364 58.1007 13.3224 58.1007 13.3224C58.1007 13.3224 59.976 15.2969 61.3279 13.1129Z" fill="#3AD19D"/>
<path d="M63.7935 23.0405C60.2582 25.9562 57.6867 21.9721 57.6867 21.9721C56.4887 22.6789 56.1698 21.4658 56.1698 21.4658C56.1698 21.4658 47.0176 6.33311 45.7515 6.13614C44.4853 5.93916 45.1187 4.67421 45.1187 4.67421C43.5268 4.30849 43.5679 3.08177 43.7406 2.36824C41.4679 3.49414 39.0986 5.4659 38.0763 8.91265C36.0683 15.6827 32.7341 21.9441 34.8903 29.3526L48.4402 31.6988L63.1719 29.262C63.7874 27.1046 63.9379 25.0445 63.7935 23.0405Z" fill="#219C6F"/>
<path d="M57.6065 12.5914C55.5142 4.81977 49.8741 4.55417 48.8931 4.56798C47.912 4.55476 42.2722 4.82372 40.1844 12.5966C38.4019 19.2334 42.0308 21.942 42.0703 27.4205L50.1286 30.1489L55.731 27.3261C55.8062 21.9082 59.3831 19.1904 57.6065 12.5914Z" fill="#1D2E79"/>
<path d="M45.6381 6.19475C46.6019 5.69201 47.6933 5.38065 48.8906 5.36295C52.1245 5.40761 55.4232 7.56621 56.8314 12.797C57.7842 16.336 57.1516 18.5605 56.1263 21.5883L56.5909 22.7265L57.6471 22.0832C58.7758 18.7491 59.4267 16.2836 58.3776 12.3868C57.1143 7.69454 54.5742 5.60197 52.6658 4.67272C50.952 3.83827 49.432 3.76926 48.8908 3.77427C47.7327 3.76446 46.3177 4.06982 45.0062 4.73134L44.3103 6.07405L45.6381 6.19475Z" fill="#FEF156"/>
<path d="M45.7514 6.13682C44.4852 5.93985 45.1186 4.6749 45.1186 4.6749C41.6621 6.3604 40.1072 9.80208 39.4114 12.3924C38.2829 16.5941 39.212 19.3312 40.1104 21.9781C40.7188 23.7703 41.3035 25.4952 41.2705 27.6858L42.0972 28.3287L42.8698 27.1657C42.8135 24.9673 42.2141 23.2003 41.6271 21.4708C40.7665 18.9354 39.9536 16.5406 40.9579 12.8017C41.8356 9.53334 43.4485 7.29094 45.7514 6.13682ZM57.6866 21.9728C56.4886 22.6796 56.1697 21.4664 56.1697 21.4664C55.5931 23.1682 55.0052 24.9068 54.9339 27.056C55.4679 27.2335 55.9998 27.4175 56.5293 27.6078C56.5091 25.4521 57.0862 23.7453 57.6866 21.9728Z" fill="#FFC242"/>
<path d="M52.3655 24.335L52.3653 23.7087L47.8526 25.2481L44.8456 32.4823C45.8986 33.8505 49.2628 34.8106 49.2628 34.8106L52.9599 31.2155L54.3744 26.6754C53.22 26.0433 52.3658 25.2622 52.3655 24.335Z" fill="#FFAA7B"/>
<path d="M49.0878 25.3808C49.0264 26.8266 48.5519 30.3806 45.4939 32.611L41.3464 32.3511L40.356 27.8585L42.9652 27.0103C44.437 26.3263 45.6305 25.4339 45.6302 24.3376L45.63 23.7113L48.2323 24.1903L49.0878 25.3808Z" fill="#F7965B"/>
<path d="M50.13 33.1632C49.7126 33.221 49.2918 33.2502 48.8705 33.2507C47.5546 33.2511 46.3045 32.9732 45.1748 32.4751L42.3907 32.4159L42.0453 34.4472L43.98 37.4688L47.5738 37.2192L50.13 33.1632Z" fill="#FFFBB3"/>
<path d="M42.3104 34.5582C42.7537 32.2455 45.4925 32.611 45.4925 32.611L45.4936 32.6103C43.3235 31.7514 41.5637 30.0893 40.5893 27.9927C40.4192 27.6266 39.998 27.4457 39.6101 27.5653C38.9527 27.7677 38.2923 27.9607 37.6293 28.1441L38.8935 33.382L42.3104 34.5582Z" fill="#FEF156"/>
<path d="M43.6631 40.2536C41.7536 39.6899 39.969 38.8361 38.359 37.744L38.3579 34.1895L42.1709 34.4417C43.6651 35.6678 45.3656 36.47 47.1849 36.7242L46.4546 38.9789L43.6631 40.2536Z" fill="#FEF156"/>
<path d="M37.7224 28.1186C37.3716 28.2164 37.0284 28.3095 36.6972 28.3973C34.8922 28.8758 33.4394 30.1371 32.6969 31.7796C34.1539 34.1906 36.1281 36.2535 38.4652 37.8159C38.9956 34.4356 42.3133 34.5576 42.3133 34.5576C42.3134 34.5574 42.3134 34.5571 42.3134 34.5569C40.3883 33.0256 38.7959 30.7956 37.7224 28.1186ZM61.472 36.4901C60.4387 37.3679 59.3152 38.1337 58.1203 38.7746L57.6904 34.3301L61.4713 34.0584L61.472 36.4901Z" fill="#FFC242"/>
<path d="M42.3704 17.0632C41.9551 17.0696 41.6585 16.9728 41.4467 16.8237C41.3813 16.778 41.328 16.7171 41.2913 16.6463C41.2545 16.5756 41.2354 16.497 41.2356 16.4172C41.242 15.2626 41.6569 14.5756 42.1665 13.9987L42.6179 15.8404L42.3704 17.0632Z" fill="#F7965B"/>
<path d="M55.844 17.0593C56.2801 17.0658 56.5853 16.9585 56.7988 16.7965C56.9144 16.7088 56.9789 16.5684 56.9783 16.4234C56.9736 15.2624 56.5575 14.5731 56.046 13.9949L55.3406 15.8173L55.844 17.0593Z" fill="#FFAA7B"/>
<path d="M51.328 24.7363C52.4298 24.0563 53.3384 23.1356 53.9907 22.0266C54.8347 20.592 55.4933 18.8534 55.9487 16.8559C56.0531 16.1958 56.1609 15.0984 56.1066 14.0644C56.1066 14.0644 55.7415 13.5346 55.0886 12.9936C54.4358 12.4527 54.0005 11.9266 51.1385 11.2656C49.2974 10.8403 48.8609 9.3892 48.7836 8.40799C48.7388 7.8379 48.464 7.32334 47.8052 7.22564L44.7188 13.0073L48.9995 24.3938L51.328 24.7363Z" fill="#FFC7AB"/>
<path d="M44.2245 22.0292C45.0824 23.4855 46.3812 24.618 47.9806 25.3043C48.697 25.6116 49.5183 25.6113 50.2343 25.3036C50.6564 25.1222 51.0569 24.9088 51.4345 24.6675C43.9441 18.5801 47.8029 7.22518 47.8029 7.22518C46.4089 7.0173 44.0554 7.16942 44.0564 10.5666C44.057 12.4677 42.936 13.097 42.1067 14.0648C42.0483 15.1165 42.1546 16.2309 42.2644 16.8632C42.72 18.8566 43.3795 20.5946 44.2245 22.0292Z" fill="#FFAA7B"/>
<path d="M46.9287 15.3824C46.7022 15.3824 46.4925 15.2376 46.4216 15.0119C46.3535 14.7944 46.1532 14.6483 45.9234 14.6484C45.6935 14.6485 45.4933 14.7946 45.4253 15.0122C45.3383 15.2901 45.0408 15.4454 44.7606 15.3592C44.4806 15.2728 44.3242 14.9774 44.4111 14.6994C44.618 14.0386 45.2256 13.5945 45.9231 13.5943C46.6207 13.5941 47.2285 14.0378 47.4358 14.6985C47.5229 14.9764 47.3666 15.2719 47.0866 15.3585C47.0355 15.3742 46.9822 15.3823 46.9287 15.3824ZM53.0717 15.3805C52.8453 15.3806 52.6356 15.2358 52.5647 15.01C52.4966 14.7925 52.2963 14.6465 52.0665 14.6466C51.8366 14.6466 51.6364 14.7928 51.5684 15.0103C51.4814 15.2883 51.1839 15.4436 50.9037 15.3573C50.6237 15.2709 50.4672 14.9756 50.5541 14.6976C50.761 14.0368 51.3686 13.5926 52.0662 13.5924C52.7637 13.5922 53.3715 14.036 53.5788 14.6967C53.6659 14.9746 53.5096 15.2701 53.2296 15.3566C53.1785 15.3724 53.1253 15.3804 53.0717 15.3805ZM48.996 18.4553C48.5461 18.4555 48.0961 18.2856 47.7534 17.9457L47.5314 17.7255C47.4857 17.6802 47.4493 17.6263 47.4245 17.5669C47.3997 17.5075 47.387 17.4438 47.3869 17.3794C47.3869 17.3151 47.3997 17.2513 47.4244 17.1919C47.4492 17.1325 47.4855 17.0786 47.5312 17.0333C47.7238 16.8422 48.036 16.8421 48.2285 17.0331L48.4506 17.2533C48.7513 17.5516 49.2403 17.5515 49.5409 17.253L49.7628 17.0326C49.9551 16.8415 50.2674 16.8414 50.4601 17.0324C50.5058 17.0777 50.5421 17.1316 50.5669 17.191C50.5917 17.2504 50.6045 17.3141 50.6045 17.3785C50.6046 17.4428 50.5918 17.5066 50.5671 17.566C50.5423 17.6254 50.506 17.6793 50.4603 17.7246L50.2384 17.9449C49.8959 18.2851 49.446 18.4552 48.996 18.4553Z" fill="#EA7E42"/>
<path d="M47.6231 20.2029C46.9928 20.2031 46.7143 21.0761 47.2223 21.4783C47.7084 21.8632 48.3485 22.0969 49.0502 22.0967C49.7518 22.0965 50.3917 21.8624 50.8777 21.4772C51.3854 21.0747 51.1064 20.2019 50.4761 20.2021L47.6231 20.2029Z" fill="#FE3D97"/>
<path d="M49.0871 13.9969C49.448 13.9968 49.7404 13.5532 49.7402 13.006C49.74 12.4588 49.4474 12.0153 49.0865 12.0154C48.7256 12.0155 48.4332 12.4592 48.4334 13.0064C48.4336 13.5536 48.7262 13.9971 49.0871 13.9969Z" fill="#FE3D97"/>
<path d="M59.0169 34.5871C59.4219 34.4786 59.8798 34.5591 60.2389 34.8963C60.6784 35.3088 61.0894 35.8564 61.3679 36.5774C62.998 35.2136 64.3907 33.589 65.4895 31.7697C64.746 30.1276 63.2925 28.8671 61.4872 28.3898C61.1448 28.2992 60.803 28.2065 60.4618 28.1117L58.3923 32.0668L59.0169 34.5871Z" fill="#FEF156"/>
<path d="M54.3952 40.2891C52.7122 40.7739 50.9341 41.0346 49.0951 41.0351C47.1642 41.0357 45.3005 40.7492 43.543 40.218C49.4242 34.9078 53.0658 28.775 54.2205 26.6698C54.468 26.2186 54.9851 25.9842 55.4916 26.09C57.0184 26.409 58.126 26.714 58.9142 26.9705L54.9351 34.6365L54.3952 40.2891Z" fill="#21B784"/>
<path d="M59.7087 27.2511C59.4837 27.1641 59.2114 27.0667 58.8856 26.9612C58.0544 27.0971 57.0883 27.5653 56.5537 28.8964C55.688 31.0519 54.1713 34.4933 53.6298 35.7151C53.3686 36.3044 53.2054 36.9341 53.1681 37.5775C53.1145 38.5043 53.2968 39.6593 54.3401 40.3042C55.7152 39.9125 57.0418 39.3671 58.2948 38.6783L60.4513 28.6152C60.5742 28.0411 60.2597 27.4641 59.7087 27.2511Z" fill="#3AD19D"/>
</g>
<rect x="0.0817871" y="0.0498047" width="44" height="44" rx="22" transform="rotate(-0.0170991 0.0817871 0.0498047)" fill="white"/>
<g clip-path="url(#clip1_453_4669)">
<path d="M40.5958 31.5944C42.2694 28.75 43.2302 25.4357 43.2291 21.8966C43.226 11.3256 34.6539 2.75871 24.0829 2.76187C13.512 2.76502 4.94494 11.337 4.9481 21.908C4.94915 25.4471 5.91178 28.7608 7.58716 31.6042L40.5958 31.5944Z" fill="#5E3369"/>
<path d="M30.9355 24.7575C30.9355 24.7575 27.5903 22.4361 24.1437 22.4371C20.6971 22.4381 17.3533 24.7616 17.3533 24.7616L16.2938 28.3377L24.0924 32.0898L31.9186 27.9516L30.9355 24.7575Z" fill="#E51E82"/>
<path d="M28.433 24.8309L26.6135 25.6128L24.8856 27.075L24.4812 27.9533L24.8865 30.0403L25.5187 30.2974L27.7193 29.2192L28.7781 26.9797C28.5435 26.4031 28.4547 25.4548 28.433 24.8309Z" fill="#FFAA7B"/>
<path d="M24.965 27.061L23.016 25.7724L19.7426 24.8339C19.7213 25.4583 19.633 26.4062 19.3988 26.983L19.3991 27.9552L24.0489 32.5434L25.5726 30.2585C24.888 29.1811 24.9209 27.6528 24.965 27.061Z" fill="#F7965B"/>
<path d="M32.1297 17.9613L31.5111 14.7262L30.3133 15.0395L30.5677 19.6431C31.4102 19.8969 31.9112 19.1405 31.9816 18.6215C32.0118 18.3981 32.0615 18.1778 32.1301 17.963L32.1306 17.9615L32.1297 17.9613Z" fill="#FFAA7B"/>
<path d="M16.6664 14.991L16.0485 17.9785C16.1156 18.1898 16.1643 18.4065 16.1942 18.6262C16.2649 19.1451 16.7664 19.9013 17.6088 19.6469L18.1898 14.9906L16.6664 14.991Z" fill="#F7965B"/>
<path d="M30.9966 15.2986L29.3483 9.80096L22.4958 9.12941L20.9083 19.3165C20.9083 19.3165 23.493 25.6795 26.6444 26.71C26.8007 26.615 26.9514 26.5113 27.096 26.3993C28.7385 25.123 30.6691 22.6633 30.668 19.0452L31.0127 16.529C31.0688 16.119 31.0638 15.704 30.9966 15.2986Z" fill="#FFC7AB"/>
<path d="M17.1312 15.7081C17.088 16.4014 17.1984 16.64 17.5073 19.0491C17.5084 22.6672 19.4404 25.1258 21.0837 26.401C21.9414 27.0667 22.9998 27.428 24.0896 27.4277C25.0289 27.4276 25.9484 27.1579 26.7389 26.6505C26.6164 26.5722 26.4975 26.4884 26.3825 26.3994C24.7393 25.1241 22.8072 22.6655 22.8061 19.0474C22.6132 17.0074 22.1242 15.9704 22.687 14.5235C22.9333 13.8902 23.3099 13.6274 23.2523 12.8463C23.1939 12.0555 23.1976 10.7189 23.7336 9.77635L18.1884 11.305L17.1312 15.7081Z" fill="#FFAA7B"/>
<path d="M21.9488 16.4221C21.8315 16.422 21.7173 16.3845 21.6229 16.315C21.5285 16.2455 21.4587 16.1476 21.4239 16.0357C21.3533 15.8088 21.1459 15.6565 20.908 15.6566C20.67 15.6567 20.4628 15.8092 20.3923 16.036C20.349 16.1752 20.2522 16.2916 20.1232 16.3594C19.9941 16.4273 19.8434 16.4411 19.7042 16.3979C19.5649 16.3546 19.4486 16.2578 19.3807 16.1287C19.3128 15.9997 19.299 15.849 19.3423 15.7097C19.5565 15.0205 20.1855 14.5574 20.9076 14.5571C21.6297 14.5569 22.259 15.0197 22.4735 15.7088C22.4992 15.7911 22.5051 15.8782 22.4908 15.9632C22.4766 16.0482 22.4426 16.1287 22.3915 16.1981C22.3404 16.2675 22.2737 16.324 22.1968 16.3629C22.1199 16.4018 22.0349 16.4221 21.9488 16.4221ZM28.3086 16.4202C28.1913 16.4201 28.0772 16.3826 27.9828 16.3131C27.8883 16.2436 27.8186 16.1457 27.7837 16.0338C27.7498 15.9236 27.6813 15.8273 27.5884 15.759C27.4955 15.6907 27.3831 15.6542 27.2678 15.6547C27.1525 15.6543 27.0402 15.6909 26.9473 15.7592C26.8545 15.8275 26.7861 15.9239 26.7522 16.0341C26.7089 16.1733 26.6121 16.2897 26.483 16.3575C26.354 16.4254 26.2033 16.4392 26.064 16.396C25.9248 16.3527 25.8084 16.2559 25.7406 16.1268C25.6727 15.9978 25.6589 15.8471 25.7021 15.7078C25.9163 15.0186 26.5453 14.5555 27.2674 14.5552C27.9895 14.555 28.6189 15.0178 28.8334 15.7069C28.859 15.7892 28.8649 15.8763 28.8507 15.9613C28.8364 16.0463 28.8024 16.1268 28.7513 16.1962C28.7002 16.2656 28.6335 16.322 28.5566 16.3609C28.4797 16.3998 28.3948 16.4201 28.3086 16.4202Z" fill="#EA7E42"/>
<path d="M26.6138 26.7595C26.3745 26.9009 26.1307 27.0346 25.8828 27.1603C25.325 27.4442 24.7081 27.5922 24.0822 27.5922C23.4563 27.5922 22.8393 27.4443 22.2816 27.1604C20.5933 26.3006 18.3596 24.8084 17.642 20.9686C17.5829 20.653 17.5531 20.3327 17.5529 20.0117L17.5529 20.0114C17.8405 20.7207 18.4401 21.5817 19.5914 22.0155C19.7613 20.8477 20.5988 19.6598 21.724 19.4043L22.0239 19.316L22.2783 20.3143L23.3677 21.2571C23.2442 21.3083 23.1828 21.3093 22.9141 21.3722C22.0101 21.5724 21.2101 22.0955 20.6643 22.8435C20.8487 23.3325 21.2776 23.9993 22.2744 24.3512C22.9879 24.6031 23.796 24.1677 23.8852 23.3675C23.8924 23.2993 23.9247 23.2362 23.9756 23.1903C24.0266 23.1445 24.0928 23.1191 24.1614 23.1191C24.23 23.119 24.2961 23.1444 24.3471 23.1902C24.3982 23.2361 24.4304 23.2992 24.4377 23.3674C24.5062 23.9873 25.0153 24.3991 25.5896 24.4194L26.4823 25.3488L26.6138 26.7595Z" fill="#1D2E79"/>
<path d="M30.5335 20.9662C30.5925 20.6502 30.6222 20.3294 30.6222 20.0079C30.3492 20.6822 29.7815 21.4936 28.7408 21.9454C28.5483 20.8 27.7215 19.6532 26.618 19.4033L24.9313 18.9082C24.638 18.8222 24.3446 18.9727 24.2266 19.2281C24.2219 19.2385 24.2143 19.2474 24.2047 19.2536C24.1951 19.2598 24.1839 19.2631 24.1725 19.2631C24.161 19.2631 24.1498 19.2598 24.1402 19.2536C24.1306 19.2474 24.123 19.2386 24.1183 19.2282C24.0002 18.9728 23.7065 18.8225 23.4134 18.9087L21.9343 19.3437C21.8321 19.7781 21.6951 20.9858 23.2184 21.306C23.6574 21.2089 23.9968 20.7802 24.1212 20.3235C24.1355 20.271 24.21 20.2709 24.2243 20.3234C24.349 20.7801 24.6887 21.2086 25.1278 21.3054L25.429 21.3719C26.2837 21.5605 27.0471 22.0381 27.5906 22.7241C27.4797 23.2181 27.1315 23.9687 26.052 24.3505C25.8776 24.4125 25.6915 24.4347 25.5074 24.4156C25.3427 25.1791 25.3398 26.3055 26.5271 26.8129C28.1001 25.8995 29.9047 24.3367 30.5335 20.9662Z" fill="#2A428B"/>
<path d="M24.0896 19.6267C23.6238 19.6268 23.1579 19.4496 22.8031 19.0951L22.5733 18.8655C22.4776 18.7698 22.4238 18.6399 22.4237 18.5045C22.4237 18.3692 22.4774 18.2393 22.5731 18.1435C22.6688 18.0478 22.7986 17.994 22.934 17.994C23.0694 17.9939 23.1992 18.0477 23.295 18.1433L23.5248 18.373C23.8361 18.6842 24.3424 18.684 24.6536 18.3727L24.8833 18.1428C24.979 18.0471 25.1088 17.9933 25.2441 17.9933C25.3795 17.9933 25.5093 18.047 25.6051 18.1426C25.7009 18.2383 25.7547 18.3682 25.7547 18.5036C25.7547 18.6389 25.701 18.7688 25.6053 18.8646L25.3757 19.0943C25.0211 19.4491 24.5553 19.6265 24.0896 19.6267Z" fill="#EA7E42"/>
<path d="M22.6668 21.449C22.0143 21.4492 21.726 22.3596 22.2519 22.7791C22.7551 23.1806 23.4179 23.4243 24.1442 23.4241C24.8705 23.4239 25.5331 23.1797 26.0361 22.778C26.5618 22.3582 26.2729 21.4479 25.6204 21.4481L22.6668 21.449Z" fill="#FE3D97"/>
<path d="M32.7984 9.45237L30.0519 4.61303C29.7161 4.43192 29.3763 4.25828 29.0328 4.09224L25.2978 7.39734L23.9914 9.77414C25.7101 10.2967 27.5326 10.8155 28.8679 12.15C30.5539 13.835 31.3136 16.0376 31.6557 17.653C31.7825 18.2513 32.6079 18.3191 32.8288 17.7488C33.1423 16.9395 33.4891 15.9541 33.7826 14.9016L32.7984 9.45237Z" fill="#E51E82"/>
<path d="M12.2141 29.7767L9.5336 30.6153C8.83424 30.8341 8.17648 31.1685 7.58764 31.6047C8.75116 33.5782 10.2579 35.3279 12.0368 36.7715L13.2482 33.859L12.2141 29.7767ZM16.2934 28.3372L17.2745 39.7931C18.2986 40.1834 19.3646 40.4881 20.4641 40.699L21.1059 32.9582L16.2934 28.3372Z" fill="#DDD1CC"/>
<path d="M20.3774 33.1172L20.3797 40.6824C21.6033 40.9226 22.8473 41.0433 24.0943 41.0427C24.1081 41.0427 24.1218 41.0422 24.1357 41.0422L25.5751 33.5564L20.3774 33.1172Z" fill="#C4BAB7"/>
<path d="M24.1181 32.2921C24.0813 31.9074 23.9608 31.5354 23.7651 31.2023C23.5694 30.8691 23.3032 30.5827 22.9851 30.3632C20.966 28.9693 19.8379 27.5173 19.2791 26.6326C19.0312 26.2401 18.4733 26.2032 18.1768 26.5606L17.2688 27.6554L16.8057 29.0335L17.2696 30.2751C18.6548 32.6667 21.2396 34.2041 24.1319 34.1529L24.483 33.8164L24.4825 32.4362L24.1181 32.2921ZM38.6473 30.6064L36.0839 29.8061L34.3689 33.547L36.2562 36.6768C37.9876 35.2488 39.4556 33.5288 40.5939 31.5946C40.0048 31.1588 39.3468 30.8248 38.6473 30.6064ZM26.8844 32.8558L27.7227 40.6967C28.8483 40.4805 29.9519 40.1629 31.0202 39.7477L31.573 38.0982L31.5702 28.6852L26.8844 32.8558Z" fill="#EDE3DD"/>
<path d="M25.927 32.6967L24.0495 34.0302L24.0516 41.0431C24.0654 41.0431 24.0791 41.0437 24.093 41.0437C25.364 41.0433 26.6057 40.9178 27.8073 40.6811L27.805 33.0095L25.927 32.6967Z" fill="#DDD1CC"/>
<path d="M31.0172 27.7821L30 26.5572C29.7033 26.2001 29.1455 26.2373 28.8978 26.6299C28.3394 27.515 27.2122 28.9676 25.194 30.3627C24.4777 30.8579 24.0487 31.6723 24.049 32.5431L24.0495 34.1542C27.1302 34.1321 29.7827 32.3156 31.0177 29.6987L31.3699 28.6854L31.0172 27.7821Z" fill="#F9F2F2"/>
<path d="M14.3858 32.8819L11.9512 32.5345L11.9524 36.7046C13.5706 38.0334 15.3961 39.0874 17.3559 39.8244L17.3535 31.641L14.3858 32.8819Z" fill="#E51E82"/>
<path d="M20.9897 6.79025L21.3437 9.09077L22.9058 10.2065C21.6349 10.6318 20.3928 11.1725 19.4136 12.1523C17.7285 13.8383 16.9701 16.0414 16.629 17.657C16.5026 18.2554 15.6772 18.3236 15.4559 17.7535C15.3573 17.4994 15.2618 17.2442 15.1693 16.9879L15.1677 11.5014L19.4583 7.23579L20.9897 6.79025Z" fill="#FE3D97"/>
<path d="M28.9396 2.64305L23.6546 4.56487L20.9919 6.8705C20.9919 6.8705 19.7009 9.67636 22.7594 10.2555C25.4445 9.33558 28.2983 8.98793 29.1009 6.14223C29.5271 4.63116 29.3461 3.48793 28.9396 2.64305Z" fill="#FD77A6"/>
<path d="M33.7812 32.6611L30.9367 31.7149L30.9391 39.779C32.9018 39.0257 34.7268 37.954 36.3408 36.6069L36.3396 32.6052L33.7812 32.6611ZM33.7115 7.57419C32.9262 6.38896 31.5348 5.40531 29.9585 4.5625C30.1445 5.19244 30.4104 6.37026 30.251 7.57374C30.1244 8.5294 30.4176 9.4965 31.0664 10.2094C31.9641 11.1958 33.1169 12.8047 33.7435 15.0379C34.4837 12.438 34.9173 9.39407 33.7115 7.57419Z" fill="#FE3D97"/>
<path d="M21.1807 6.80202L19.6542 5.90755L19.2857 4.07454C17.3249 5.02262 15.5094 6.15637 14.5675 7.57993C13.0061 9.93954 14.1997 14.3537 15.2446 17.1922C15.2514 17.0096 15.2522 16.8171 15.246 16.6132C15.0916 11.4971 21.1807 6.80202 21.1807 6.80202Z" fill="#E51E82"/>
<path d="M25.7043 1.28966C24.1706 2.08066 21.5665 2.9623 19.193 4.1198C19.0006 4.95353 18.8473 6.75217 21.0586 6.87401L21.0585 6.87417C22.484 6.05976 23.9563 5.49018 25.2011 5.07043C27.3709 4.33877 28.456 3.4272 28.9935 2.75477C28.854 2.4409 28.675 2.14614 28.4608 1.87766C27.8025 1.05044 26.644 0.805002 25.7043 1.28966Z" fill="#FE3D97"/>
<path d="M36.3384 32.6834L36.3379 31.1479C36.3376 30.1924 36.0906 29.2531 35.6206 28.4211C35.1507 27.5891 34.4739 26.8926 33.6557 26.3991L30.9333 24.7568L30.9354 31.7932C31.7254 32.6942 33.9155 34.7049 36.3384 32.6834Z" fill="#FD77A6"/>
<path d="M11.9513 32.6909L11.9509 31.1554C11.9506 30.1998 12.1971 29.2604 12.6665 28.4282C13.1359 27.5959 13.8124 26.899 14.6302 26.4049L17.3516 24.7611L17.3537 31.7974C16.5642 32.6989 14.3754 34.711 11.9513 32.6909Z" fill="#FE3D97"/>
</g>
<defs>
<clipPath id="clip0_453_4669">
<rect width="40" height="40" fill="white" transform="translate(29.0823 1.04102) rotate(-0.0170991)"/>
</clipPath>
<clipPath id="clip1_453_4669">
<rect width="40" height="40" fill="white" transform="translate(4.08228 1.04883) rotate(-0.0170991)"/>
</clipPath>
</defs>
</svg>
